<?xml version="1.0"?>
<svg width="1740" height="726" xmlns="http://www.w3.org/2000/svg" xmlns:svg="http://www.w3.org/2000/svg" preserveAspectRatio="xMidYMid meet" version="1.0">

 <g class="layer">
  <title>Layer 2</title>
  <rect fill="#ffffff" height="390" id="svg_4" stroke="null" stroke-dasharray="null" stroke-linecap="null" stroke-linejoin="null" stroke-opacity="null" width="1501" x="123.47" y="162"/>
 </g>
 <g class="layer">
  <title>Layer 1</title>
  <g fill="#000000" id="svg_1" transform="matrix(0.1, 0, 0, -0.1, 0, 0)">
   <path d="m165,-23c-26,-6 -57,-28 -91,-62c-43,-42 -54,-61 -63,-106c-9,-41 -11,-900 -9,-3474l3,-3420l22,-40c25,-47 64,-85 113,-111c34,-19 261,-19 8550,-19l8515,0l41,22c55,29 109,93 123,146c9,31 11,912 9,3477l-3,3435l-27,45c-30,52 -71,85 -130,106c-35,12 -1158,14 -8527,13c-5876,-1 -8498,-4 -8526,-12zm3376,-1858c692,-70 1272,-533 1489,-1188c64,-192 90,-355 90,-556c-1,-662 -376,-1266 -969,-1561c-790,-392 -1737,-140 -2232,594c-414,616 -390,1439 60,2027c371,485 966,745 1562,684zm12159,-294l0,-295l-693,0l-693,0l-41,-30c-31,-23 -47,-45 -62,-86c-21,-54 -21,-70 -21,-1060c0,-881 2,-1009 15,-1041c22,-53 43,-73 103,-99l53,-24l694,0l695,0l0,-295l0,-296l-1077,4c-1200,3 -1131,0 -1290,72c-126,58 -215,137 -295,265c-43,69 -61,117 -95,256l-27,109l-3,1009l-4,1008l26,130c14,71 39,163 55,204c43,108 138,243 218,309c77,64 205,130 277,143c29,6 502,10 1108,11l1057,1l0,-295zm-7038,270c118,-17 187,-40 263,-86c104,-62 152,-113 200,-213c78,-164 78,-160 82,-778c4,-531 4,-549 -17,-614c-26,-84 -47,-119 -108,-176c-60,-56 -134,-85 -254,-98c-51,-6 -94,-12 -96,-14c-2,-2 152,-342 342,-755c190,-413 346,-754 346,-756c0,-3 -307,-4 -681,-3l-681,3l-289,750l-288,750l-196,3l-195,2l0,-755l0,-755l-615,0l-615,0l0,1755l0,1755l1353,0c1134,0 1368,-2 1449,-15zm3898,-275l0,-290l-730,0l-730,0l0,-415l0,-415l715,0l715,0l0,-290l0,-290l-715,0l-715,0l0,-470l0,-470l750,0l750,0l0,-290l0,-290l-1370,0l-1370,0l0,1755l0,1755l1350,0l1350,0l0,-290z" fill="#d33027" id="svg_2" transform="matrix(1, 0, 0, 1, 0, 0)"/>
   <path d="m7100,-2890l0,-410l400,0l400,0l36,33c22,20 38,47 44,72c11,45 13,569 4,627c-4,21 -17,49 -30,63l-23,25l-416,0l-415,0l0,-410z" fill="#d33027" id="svg_3"/>
  </g>
 </g>
</svg>